# xmcd CD database file
#
# Track frame offsets:
#	150
#	30183
#	52535
#	80986
#	105750
#	132551
#	166252
#	201169
#	221747
#
# Disc length: 3350 seconds
#
# Revision: 0
# Processed by: cddbd v1.5.2PL0 Copyright (c) Steve Scherf et al.
# Submitted via: CDex 1.70beta2
#
DISCID=6e0d1409
DTITLE=Andy Laverne - First Tango In New York
DYEAR=1900
DGENRE=Jazz
TTITLE0=You And The Night And The Music
TTITLE1=That Old Feeling
TTITLE2=Goodbye
TTITLE3=Cabin In The Sky
TTITLE4=This Is New
TTITLE5=My Melancholy Baby
TTITLE6=You're My Thrill
TTITLE7=Cool Valley
TTITLE8=First Tango
EXTD=
EXTT0=
EXTT1=
EXTT2=
EXTT3=
EXTT4=
EXTT5=
EXTT6=
EXTT7=
EXTT8=
PLAYORDER=
